<svg width="155" height="33" viewBox="0 0 155 33" fill="none" xmlns="http://www.w3.org/2000/svg">
<path d="M51.4337 9.02397V23.1392H47.9953V9.02397H51.4337ZM66.5526 23.1392H63.1143L57.3637 14.4328V23.1392H53.9254V9.02397H57.3637L63.1143 17.7706V9.02397H66.5526V23.1392ZM82.2956 9.02397L77.2889 23.1392H72.986L67.9793 9.02397H71.6388L75.1374 19.6807L78.6562 9.02397H82.2956ZM87.1709 11.7786V14.6339H91.7754V17.288H87.1709V20.3845H92.3786V23.1392H83.7326V9.02397H92.3786V11.7786H87.1709ZM99.718 23.2799C98.6859 23.2799 97.761 23.1124 96.9433 22.7772C96.1256 22.4421 95.4687 21.9461 94.9728 21.2893C94.4902 20.6325 94.2355 19.8416 94.2087 18.9167H97.8682C97.9218 19.4395 98.1028 19.8416 98.4111 20.1231C98.7194 20.3912 99.1215 20.5252 99.6175 20.5252C100.127 20.5252 100.529 20.4113 100.824 20.1834C101.119 19.9421 101.266 19.6137 101.266 19.1982C101.266 18.8496 101.146 18.5614 100.904 18.3336C100.676 18.1057 100.388 17.918 100.04 17.7706C99.7046 17.6231 99.2221 17.4556 98.592 17.2679C97.6805 16.9864 96.9366 16.7049 96.3602 16.4234C95.7838 16.1419 95.2878 15.7263 94.8722 15.1767C94.4567 14.6272 94.2489 13.91 94.2489 13.0253C94.2489 11.7116 94.7248 10.6862 95.6765 9.9489C96.6283 9.19823 97.8682 8.8229 99.3963 8.8229C100.951 8.8229 102.205 9.19823 103.156 9.9489C104.108 10.6862 104.617 11.7183 104.685 13.0454H100.965C100.938 12.5896 100.77 12.2344 100.462 11.9797C100.154 11.7116 99.7583 11.5776 99.2757 11.5776C98.8601 11.5776 98.525 11.6915 98.2703 11.9194C98.0156 12.1339 97.8883 12.4489 97.8883 12.8644C97.8883 13.3202 98.1028 13.6754 98.5317 13.9301C98.9607 14.1848 99.6309 14.4596 100.542 14.7545C101.454 15.0628 102.191 15.3577 102.754 15.6392C103.331 15.9207 103.827 16.3296 104.242 16.8657C104.658 17.4019 104.865 18.0923 104.865 18.9368C104.865 19.7411 104.658 20.4716 104.242 21.1284C103.84 21.7853 103.25 22.3081 102.473 22.6968C101.695 23.0855 100.777 23.2799 99.718 23.2799ZM117.136 9.02397V11.7786H113.396V23.1392H109.957V11.7786H106.217V9.02397H117.136ZM122.299 9.02397V23.1392H118.861V9.02397H122.299ZM134.161 13.4877C133.906 13.0186 133.538 12.6634 133.055 12.4221C132.586 12.1674 132.03 12.04 131.386 12.04C130.274 12.04 129.382 12.4087 128.712 13.1459C128.042 13.8698 127.707 14.8416 127.707 16.0615C127.707 17.3617 128.055 18.3805 128.752 19.1177C129.463 19.8416 130.435 20.2035 131.668 20.2035C132.512 20.2035 133.223 19.989 133.799 19.5601C134.389 19.1311 134.818 18.5145 135.086 17.7102H130.723V15.1767H138.203V18.3738C137.948 19.2317 137.512 20.0293 136.896 20.7665C136.292 21.5038 135.522 22.1003 134.583 22.5561C133.645 23.0118 132.586 23.2397 131.406 23.2397C130.012 23.2397 128.766 22.9381 127.666 22.3349C126.581 21.7183 125.729 20.8671 125.113 19.7813C124.51 18.6955 124.208 17.4556 124.208 16.0615C124.208 14.6674 124.51 13.4274 125.113 12.3416C125.729 11.2425 126.581 10.3913 127.666 9.78804C128.752 9.17142 129.992 8.86311 131.386 8.86311C133.075 8.86311 134.496 9.27196 135.649 10.0896C136.815 10.9073 137.586 12.04 137.961 13.4877H134.161ZM146.783 23.2799C145.456 23.2799 144.236 22.9716 143.123 22.355C142.024 21.7384 141.146 20.8805 140.489 19.7813C139.846 18.6687 139.524 17.422 139.524 16.0414C139.524 14.6607 139.846 13.4207 140.489 12.3215C141.146 11.2223 142.024 10.3644 143.123 9.74783C144.236 9.13121 145.456 8.8229 146.783 8.8229C148.11 8.8229 149.323 9.13121 150.422 9.74783C151.535 10.3644 152.406 11.2223 153.036 12.3215C153.679 13.4207 154.001 14.6607 154.001 16.0414C154.001 17.422 153.679 18.6687 153.036 19.7813C152.393 20.8805 151.521 21.7384 150.422 22.355C149.323 22.9716 148.11 23.2799 146.783 23.2799ZM146.783 20.1432C147.909 20.1432 148.807 19.7679 149.477 19.0172C150.161 18.2665 150.502 17.2746 150.502 16.0414C150.502 14.7947 150.161 13.8028 149.477 13.0655C148.807 12.3148 147.909 11.9395 146.783 11.9395C145.643 11.9395 144.732 12.3081 144.048 13.0454C143.378 13.7827 143.043 14.7813 143.043 16.0414C143.043 17.288 143.378 18.2866 144.048 19.0373C144.732 19.7746 145.643 20.1432 146.783 20.1432Z" fill="#5464F4"/>
<path d="M42.0497 10.1681L41.9981 9.50567H41.3357C38.0839 9.50567 35.5719 8.38733 34.0321 7.44104C32.3546 6.40873 31.4341 5.36781 31.4255 5.35921L30.9179 4.76562L30.3673 5.3248C30.3243 5.36781 26.1779 9.51428 19.8807 9.51428H19.2183L19.1667 10.1767C19.1409 10.538 18.5043 19.0804 20.7754 24.1646C22.4701 27.9497 25.8682 30.9606 30.3587 32.6381L30.6082 32.7328L30.8577 32.6381C35.4601 30.9176 38.7721 28.0357 40.441 24.3022C42.7121 19.2094 42.0755 10.538 42.0497 10.1681ZM28.2597 21.8418C28.2597 22.8139 27.7607 23.3731 26.5736 23.3731H26.5564V23.7516C26.5564 24.2162 26.1779 24.5947 25.7133 24.5947C25.2488 24.5947 24.8703 24.2162 24.8703 23.7516V23.3731C23.6917 23.3559 23.2186 22.7967 23.2186 21.8418V21.3859C23.2186 20.8956 23.6143 20.4998 24.1046 20.4998C24.595 20.4998 24.9907 20.8956 24.9907 21.3859V21.5924C24.9907 21.9193 25.1025 22.0139 25.438 22.0139H26.023C26.3671 22.0139 26.4532 21.9193 26.4532 21.5924V19.5019C26.4532 19.175 26.3585 19.0804 26.023 19.0804H24.7756C23.6143 19.0804 23.1842 18.504 23.1842 17.5319V15.1404C23.1842 14.1683 23.6659 13.6091 24.8531 13.6091H24.8703V13.2306C24.8703 12.7661 25.2488 12.3876 25.7133 12.3876C26.1779 12.3876 26.5564 12.7661 26.5564 13.2306V13.6091C27.7349 13.6091 28.2253 14.1683 28.2253 15.1404V15.6049C28.2253 16.1039 27.821 16.4996 27.3306 16.4996C26.8317 16.4996 26.4359 16.0953 26.4359 15.6049V15.3899C26.4359 15.063 26.3413 14.9683 26.0058 14.9683H25.4208C25.0767 14.9683 24.9735 15.063 24.9735 15.3899V17.3513C24.9735 17.6782 25.0853 17.7728 25.4208 17.7728H26.6424C27.8038 17.7728 28.2683 18.3148 28.2683 19.2869V21.8418H28.2597ZM38.1871 23.0204C37 25.6786 34.617 27.8465 31.2104 29.1541V8.86048C31.2276 8.84327 31.2362 8.83467 31.2362 8.83467C31.2362 8.83467 34.1869 12.2671 39.3915 12.2671C39.3915 12.2671 39.9163 19.1406 38.1871 23.0204Z" fill="url(#paint0_linear_435_68)"/>
<path d="M6.00542 15.0202C5.98821 15.0374 5.971 15.0546 5.9538 15.0718C5.92799 15.0976 5.90218 15.1234 5.87638 15.1492C5.85917 15.1664 5.84197 15.1836 5.82476 15.2008C5.6183 15.4503 5.48926 15.76 5.48926 16.1041V16.3622H8.08725V14.6933H6.90869C6.56459 14.6847 6.24629 14.8137 6.00542 15.0202Z" fill="url(#paint1_linear_435_68)"/>
<path d="M8.09604 17.0244H5.49805V18.3578H8.09604V17.0244Z" fill="url(#paint2_linear_435_68)"/>
<path d="M8.09604 19.0203H5.49805V20.3537H8.09604V19.0203Z" fill="url(#paint3_linear_435_68)"/>
<path d="M5.49805 21.2829C5.49805 21.627 5.62709 21.9453 5.83355 22.1862C5.85075 22.2034 5.86796 22.2206 5.88517 22.2378C5.91097 22.2636 5.93678 22.2894 5.96259 22.3152C5.97979 22.3324 5.997 22.3496 6.0142 22.3669C6.26368 22.5733 6.57338 22.7024 6.91748 22.7024H8.10464V21.0334H5.49805V21.2829Z" fill="url(#paint4_linear_435_68)"/>
<path d="M14.3669 15.1922C14.3497 15.175 14.3325 15.1578 14.3153 15.1406C14.2895 15.1148 14.2637 15.089 14.2379 15.0631C14.2207 15.0459 14.2035 15.0287 14.1863 15.0115C13.9368 14.8051 13.6271 14.676 13.283 14.676H12.0958H11.4334H8.7666V16.3449V17.0073V18.3407V19.0031V20.3366V20.999V22.6593V22.6679H11.4334V20.999V20.3366V19.0031V18.3407V17.0073V16.3449H12.0958H14.6938V16.0869C14.7024 15.7514 14.5734 15.4417 14.3669 15.1922Z" fill="url(#paint5_linear_435_68)"/>
<path d="M12.0967 18.3492V18.3578H14.7033V17.0244H12.0967V18.3492Z" fill="url(#paint6_linear_435_68)"/>
<path d="M12.0967 20.3537V20.3623H14.7033V19.0203H12.0967V20.3537Z" fill="url(#paint7_linear_435_68)"/>
<path d="M12.0967 22.685L13.2838 22.6936C13.6279 22.6936 13.9462 22.5646 14.1871 22.3581C14.2043 22.3409 14.2215 22.3237 14.2387 22.3065C14.2645 22.2807 14.2903 22.2549 14.3162 22.2291C14.3334 22.2119 14.3506 22.1947 14.3678 22.1775C14.5742 21.928 14.7033 21.6183 14.7033 21.2742V21.0161H12.1053V22.685H12.0967Z" fill="url(#paint8_linear_435_68)"/>
<path d="M34.2729 0H5.10136C2.2883 0 0 2.2883 0 5.10136V22.5131C0 25.3261 2.2883 27.6144 5.10136 27.6144H20.8614C20.3366 26.8832 19.8807 26.1176 19.485 25.3175H5.10136C3.55289 25.3175 2.2969 24.0616 2.2969 22.5131V11.6996H17.4375C17.4977 9.4715 17.7042 7.71656 17.7644 7.23481H2.2969V5.10136C2.2969 3.55289 3.55289 2.2969 5.10136 2.2969H34.2729C35.8213 2.2969 37.0773 3.55289 37.0773 5.10136V7.08857C37.7569 7.33804 38.5312 7.56171 39.3742 7.69935V5.10136C39.3656 2.2883 37.0859 0 34.2729 0Z" fill="url(#paint9_linear_435_68)"/>
<defs>
<linearGradient id="paint0_linear_435_68" x1="30.5182" y1="5.61696" x2="30.8407" y2="32.2764" gradientUnits="userSpaceOnUse">
<stop offset="0.00178628" stop-color="#71F2E0"/>
<stop offset="0.8913" stop-color="#5567F4"/>
<stop offset="1" stop-color="#5156F6"/>
</linearGradient>
<linearGradient id="paint1_linear_435_68" x1="6.88108" y1="13.9291" x2="6.55861" y2="23.0655" gradientUnits="userSpaceOnUse">
<stop offset="0.00178628" stop-color="#F1A13D"/>
<stop offset="0.5055" stop-color="#E8347D"/>
<stop offset="1" stop-color="#8118F5"/>
</linearGradient>
<linearGradient id="paint2_linear_435_68" x1="6.93322" y1="13.9308" x2="6.61075" y2="23.0672" gradientUnits="userSpaceOnUse">
<stop offset="0.00178628" stop-color="#F1A13D"/>
<stop offset="0.5055" stop-color="#E8347D"/>
<stop offset="1" stop-color="#8118F5"/>
</linearGradient>
<linearGradient id="paint3_linear_435_68" x1="7.00376" y1="13.9333" x2="6.68129" y2="23.0697" gradientUnits="userSpaceOnUse">
<stop offset="0.00178628" stop-color="#F1A13D"/>
<stop offset="0.5055" stop-color="#E8347D"/>
<stop offset="1" stop-color="#8118F5"/>
</linearGradient>
<linearGradient id="paint4_linear_435_68" x1="7.08014" y1="13.9362" x2="6.75767" y2="23.0726" gradientUnits="userSpaceOnUse">
<stop offset="0.00178628" stop-color="#F1A13D"/>
<stop offset="0.5055" stop-color="#E8347D"/>
<stop offset="1" stop-color="#8118F5"/>
</linearGradient>
<linearGradient id="paint5_linear_435_68" x1="11.7823" y1="14.1021" x2="11.4598" y2="23.2385" gradientUnits="userSpaceOnUse">
<stop offset="0.00178628" stop-color="#F1A13D"/>
<stop offset="0.5055" stop-color="#E8347D"/>
<stop offset="1" stop-color="#8118F5"/>
</linearGradient>
<linearGradient id="paint6_linear_435_68" x1="13.5237" y1="14.1634" x2="13.2013" y2="23.2998" gradientUnits="userSpaceOnUse">
<stop offset="0.00178628" stop-color="#F1A13D"/>
<stop offset="0.5055" stop-color="#E8347D"/>
<stop offset="1" stop-color="#8118F5"/>
</linearGradient>
<linearGradient id="paint7_linear_435_68" x1="13.5943" y1="14.1659" x2="13.2718" y2="23.3023" gradientUnits="userSpaceOnUse">
<stop offset="0.00178628" stop-color="#F1A13D"/>
<stop offset="0.5055" stop-color="#E8347D"/>
<stop offset="1" stop-color="#8118F5"/>
</linearGradient>
<linearGradient id="paint8_linear_435_68" x1="13.6462" y1="14.1678" x2="13.3238" y2="23.3042" gradientUnits="userSpaceOnUse">
<stop offset="0.00178628" stop-color="#F1A13D"/>
<stop offset="0.5055" stop-color="#E8347D"/>
<stop offset="1" stop-color="#8118F5"/>
</linearGradient>
<linearGradient id="paint9_linear_435_68" x1="19.6844" y1="27.8668" x2="19.6844" y2="0.652606" gradientUnits="userSpaceOnUse">
<stop stop-color="#00FF5F"/>
<stop offset="0.6317" stop-color="#00A4B9"/>
<stop offset="1" stop-color="#1066DC"/>
</linearGradient>
</defs>
</svg>
